PathFileType	4	(X/Y/Z)	D:\TRACE\v60_Jaco2_6-2-23\JustBodyDRS_Motion3_6-v60.trc
DataRate	CameraRate	NumFrames	NumMarkers	Units	OrigDataRate	OrigDataStartFrame	OrigNumFrames
100.00	100.00	      38	9	mm	100.00	6126	      7000
Frame#	Time	front left toe			Front right toe			aft left toe			aft right toe			Arm			FL body			FR body			AL Body			AR Body			
		X1	Y1	Z1	X2	Y2	Z2	X3	Y3	Z3	X4	Y4	Z4	X5	Y5	Z5	X6	Y6	Z6	X7	Y7	Z7	X8	Y8	Z8	X9	Y9	Z9	

6126	61.250	-246.10251	19.49833	-137.47981	135.22133	135.54195	-138.63184	-248.54167	109.52428	474.61676	114.37312	-2.62685	492.94028	-39.79792	1184.15869	-179.39557	-127.86388	543.40802	-310.13654	30.55199	544.84229	-305.03430	-149.27454	523.55133	633.87073	4.83128	515.75226	637.82501	
6127	61.260	-246.19577	19.52213	-137.44853	136.13457	143.86009	-138.44205	-248.36745	119.60196	474.34619	114.51373	-2.54681	492.96252	-40.07087	1184.03296	-179.51482	-127.94895	542.81769	-310.04529	29.83262	544.25928	-305.30283	-148.94191	523.51605	633.88501	5.12026	515.68109	637.72278	
6128	61.270	-246.26141	19.54954	-137.44482	136.43613	148.78728	-137.93385	-248.61105	127.28851	474.25311	114.68652	-2.46983	493.01123	-40.24554	1183.51453	-180.00867	-128.15717	542.15680	-309.65781	30.09465	544.10962	-305.61566	-148.50278	523.74750	634.16119	5.24071	515.79224	637.78192	
6129	61.280	-246.44765	19.73539	-137.37766	137.41496	151.64818	-137.67209	-248.58414	131.47984	474.89255	114.69748	-2.49962	492.94998	-39.47216	1182.81409	-180.36197	-128.92828	542.08142	-309.75723	29.70143	543.75543	-305.53510	-147.80484	523.79578	634.28802	5.31566	516.24396	637.95892	
6130	61.290	-246.49376	19.77520	-137.25188	138.60855	153.35672	-137.31258	-249.72098	132.54686	476.12689	114.68098	-2.51062	492.90384	-39.02063	1182.13831	-180.91690	-129.26187	541.80634	-309.60370	28.90771	543.52972	-305.37695	-147.08952	524.15869	634.77374	2.39802	517.34808	639.43115	
6131	61.300	-246.49615	19.71538	-137.19743	139.56993	151.55153	-136.20209	-250.57906	131.30457	476.80804	114.76224	-2.49542	492.90396	-38.96156	1181.97546	-181.16336	-129.67563	541.29785	-309.33615	28.22369	543.06964	-305.47699	-146.40781	524.46991	634.68817	3.38145	517.52197	639.50836	
6132	61.310	-246.50244	19.68572	-137.18307	139.97231	147.38571	-135.33647	-250.73160	127.74187	478.73044	114.76327	-2.50057	492.89767	-39.59933	1182.13440	-181.37466	-130.14532	541.18274	-309.26514	28.11710	542.50537	-305.24561	-145.76924	524.70276	635.02936	3.97539	517.72229	639.44269	
6133	61.320	-246.44827	19.36613	-137.20645	138.44104	141.72961	-135.11385	-251.26460	124.53682	479.72668	114.86328	-2.40516	492.84705	-40.21350	1182.21887	-181.54239	-130.28601	540.96033	-308.89334	27.88004	542.21783	-305.04117	-145.32451	525.07947	635.42096	4.26510	517.82214	639.45337	
6134	61.330	-246.68398	19.49121	-136.90085	137.22963	134.65747	-134.49071	-250.95010	118.40521	481.40375	114.87418	-2.40846	492.84811	-40.30926	1182.04578	-181.63928	-130.58083	540.71387	-308.60278	28.11804	541.96442	-305.14307	-144.55092	525.09729	635.74097	9.86214	516.87860	637.93445	
6135	61.340	-246.68520	19.44777	-136.82507	135.68323	127.11169	-135.10263	-251.09865	112.63009	481.89819	114.95467	-2.40816	492.88470	-40.10425	1181.86987	-181.68953	-131.15190	540.70068	-308.50928	27.78936	541.94794	-305.17328	-143.68683	525.37292	635.89789	10.51130	516.99097	637.99756	
6136	61.350	-246.72937	19.43093	-136.84145	134.89844	118.41139	-135.20308	-250.90134	105.11656	482.41888	114.99767	-2.42367	492.85519	-39.34945	1181.51404	-181.72375	-131.42979	540.78418	-308.35333	26.65374	542.02911	-305.00543	-143.12151	525.23950	635.87952	11.09128	516.92230	638.09784	
6137	61.360	-246.81242	19.47920	-136.77385	134.81635	108.82345	-135.48241	-251.52818	97.19318	482.39099	114.86023	-2.52205	492.83762	-38.55292	1181.35828	-181.52278	-131.72496	540.88800	-308.23514	26.48455	541.82623	-305.00308	-142.40269	525.46881	635.94147	11.40348	516.84918	638.05878	
6138	61.370	-246.89435	19.46043	-136.71358	135.17726	99.19225	-135.59268	-251.53586	87.33546	482.62320	114.95391	-2.51125	492.79355	-37.77052	1181.46777	-181.13206	-132.08835	540.99811	-308.07404	26.10494	541.69208	-305.10785	-141.62950	525.36981	636.56799	12.13627	516.66522	637.97900	
6139	61.380	-246.98067	19.38782	-136.69261	134.92010	89.48715	-135.36275	-251.32635	77.26704	482.90311	115.18390	-2.52910	492.73734	-37.09282	1181.57141	-180.76741	-132.51593	541.06042	-307.88419	25.81271	541.52368	-305.07471	-141.19209	525.19891	636.71252	12.62084	516.51550	637.89539	
6140	61.390	-246.98602	19.39058	-136.65121	135.71796	80.45561	-135.47804	-250.83116	67.23540	483.01050	115.24884	-2.53346	492.70068	-36.87492	1181.64990	-180.67435	-132.71155	541.05579	-307.77988	25.49832	541.47595	-305.17145	-140.79510	525.10114	636.82135	13.47079	516.32825	637.83038	
6141	61.400	-247.02948	19.47408	-136.62415	134.87967	73.23757	-136.30737	-250.20654	57.77574	482.84857	115.38159	-2.66941	492.66306	-36.67347	1181.61523	-180.56218	-132.91527	541.14520	-307.76181	25.06506	541.43488	-305.37668	-139.97157	524.86792	636.68536	14.33379	515.98267	637.75519	
6142	61.410	-247.05313	19.50342	-136.57144	133.24257	65.84303	-137.51071	-250.02100	49.15320	482.54391	115.35308	-2.88410	492.69986	-36.35992	1181.49524	-180.55704	-133.19855	541.28516	-307.79016	24.84332	541.41333	-305.55069	-139.22202	524.76324	636.65753	14.81970	515.69086	637.73920	
6143	61.420	-247.08405	19.50778	-136.54713	134.57065	58.63973	-137.46092	-249.58998	40.65034	481.95331	115.31429	-3.00035	492.67990	-36.19726	1181.46082	-180.66408	-133.40671	541.31653	-307.87262	24.72922	541.26050	-305.76266	-138.51520	524.70270	636.52734	15.44449	515.45074	637.53442	
6144	61.430	-247.13278	19.49965	-136.50761	134.84973	51.20723	-137.67429	-249.35284	32.61895	482.06146	115.36018	-3.31638	492.66937	-35.84410	1181.34253	-180.85872	-133.74881	541.16418	-307.99069	24.60065	541.20062	-305.95102	-137.84303	524.65674	636.44464	15.73390	515.30750	637.28156	
6145	61.440	-247.22511	19.43989	-136.51640	134.33824	44.06420	-138.10617	-248.72105	25.53893	481.46121	115.54678	-3.28804	492.61606	-35.48444	1181.10010	-181.08028	-133.94258	541.04950	-308.01361	24.36964	541.11053	-306.28714	-137.02475	524.48804	636.32025	16.53352	515.09503	636.93506	
6146	61.450	-247.28726	19.44782	-136.47386	135.21484	38.47374	-138.36337	-247.77074	19.00918	480.78137	115.44290	-3.46054	492.55115	-35.27870	1180.86646	-181.24751	-134.29422	540.98932	-308.23834	24.06074	541.02777	-306.60394	-136.71291	524.64581	636.15381	17.00963	515.00818	636.64502	
6147	61.460	-247.33119	19.37845	-136.50562	135.69026	32.86729	-139.10313	-247.86909	12.97803	481.09207	115.37897	-3.51702	492.51074	-35.69421	1180.92310	-181.66920	-134.56145	540.84033	-308.48404	23.78734	540.97302	-306.88324	-136.05203	524.41498	635.71991	17.17176	515.08044	636.31000	
6148	61.470	-247.36568	19.34312	-136.51857	136.05370	26.59202	-139.80118	-247.28117	6.89124	479.64709	115.26331	-3.46323	492.49976	-35.63326	1180.86719	-181.91893	-134.70535	540.91541	-308.75510	23.57149	541.04102	-307.25858	-135.77733	524.68939	635.92041	18.33696	515.28119	636.00873	
6149	61.480	-247.37463	19.31865	-136.48759	137.26097	24.82001	-141.62160	-247.11635	3.29642	477.98770	115.10629	-3.51593	492.52017	-36.04220	1181.00879	-182.37950	-134.90062	540.96753	-309.04672	23.35852	540.99805	-307.74384	-135.13638	524.66400	635.61450	18.84580	515.51007	635.62415	
6150	61.490	-247.39334	19.35250	-136.48819	137.80348	22.57658	-140.82066	-247.89412	0.97122	478.83743	114.96095	-3.41619	492.42865	-36.38647	1181.06396	-183.10728	-135.10518	541.16699	-309.32385	23.20526	541.08911	-307.96280	-134.41104	525.54761	635.29706	19.14996	515.89520	635.32660	
6151	61.500	-247.44412	19.73403	-136.48419	138.06241	22.25033	-141.25975	-247.98462	1.10635	478.88498	114.83099	-2.89044	492.44647	-36.80540	1181.38342	-183.79865	-135.39679	541.56079	-309.47549	22.81280	541.40900	-308.24768	-134.10042	526.90320	635.13049	19.74389	517.31555	635.09558	
6152	61.510	-247.11411	21.56335	-136.71309	136.59911	21.50429	-140.82820	-247.65475	0.51619	479.10583	114.22840	-1.02628	491.64798	-37.07360	1182.24756	-184.76636	-135.77740	541.90198	-309.50500	22.33401	542.33459	-308.61966	-133.55879	528.03693	634.75134	20.67637	518.66443	634.62604	
6153	61.520	-243.50700	26.55132	-135.68155	136.22372	21.66082	-141.37776	-248.10770	1.22990	478.40237	111.93386	2.64611	494.17322	-37.25814	1183.43982	-185.59673	-136.23756	543.09888	-309.82111	21.83418	543.16882	-309.24277	-132.29037	528.88080	634.62732	21.30013	519.02539	634.06049	
6154	61.530	-239.50642	30.56407	-131.63670	135.93811	21.70541	-141.43277	-247.95085	0.91912	478.63699	108.19923	8.21666	497.32263	-37.95226	1184.47388	-186.51634	-136.55475	543.70911	-310.24786	21.90011	544.02844	-310.04532	-132.03575	529.17682	634.30200	21.57037	519.19861	633.63434	
6155	61.540	-237.87099	41.38137	-131.09969	137.19231	21.88698	-141.25533	-248.16251	1.23762	478.34619	105.86065	18.46779	498.01193	-38.30183	1184.80249	-186.65419	-136.82822	544.12103	-310.84351	21.84284	544.24481	-310.31287	-131.78622	529.16956	633.91968	22.00784	519.47601	633.14941	
6156	61.550	-237.47293	52.92738	-132.02901	137.27840	21.76816	-141.11026	-248.25624	1.16873	478.40808	105.16254	30.64555	496.47263	-39.03067	1184.87390	-186.82887	-136.70236	543.94775	-311.09250	21.98978	544.11511	-310.74252	-131.68358	529.20740	633.18311	22.49891	519.75684	632.79956	
6157	61.560	-238.86060	65.54875	-133.73784	137.24437	21.80919	-140.64314	-247.80104	0.27087	478.90057	107.04103	43.20707	494.18549	-39.31876	1184.38367	-186.75447	-136.42308	543.75000	-311.48770	22.37320	543.91931	-311.32156	-131.89087	529.12140	632.66101	22.20273	519.70990	632.26678	
6158	61.570	-240.24500	78.96771	-136.28194	137.03239	21.48406	-141.04327	-248.46762	0.34828	478.69705	110.41016	56.91354	491.68112	-39.04127	1184.04102	-187.03032	-135.91757	543.67084	-312.01303	22.13959	544.13544	-311.45883	-131.99429	528.55206	632.62720	22.01016	518.98969	632.00116	
6159	61.580	-241.73557	92.12157	-138.56100	137.27109	21.18345	-141.00430	-248.57639	-0.05105	478.50275	113.65552	69.73486	489.13428	-38.37725	1183.86621	-187.09178	-135.76048	543.42297	-312.79385	22.64063	543.49579	-311.74118	-132.37431	527.89661	631.89526	21.30173	518.38489	631.49707	
6160	61.590	-242.66461	105.08994	-140.52231	137.37723	21.05505	-140.94182	-248.55261	-0.47494	478.42688	115.94073	82.08435	486.98257	-37.36276	1183.46375	-187.27238	-135.28822	542.84540	-313.01196	23.24722	543.17871	-312.36441	-132.92810	526.97858	631.19617	21.02884	517.90924	631.12299	
6161	61.600	-242.68094	117.28522	-142.51657	137.30380	21.11242	-140.89139	-249.02518	-0.40451	478.45789	117.10126	94.09676	484.83582	-36.69001	1182.83948	-187.56691	-134.94273	542.28510	-313.37241	23.55877	542.90717	-312.87338	-133.01222	526.78156	631.03149	20.20062	517.42084	630.71545	
6162	61.610	-242.53014	128.70871	-144.52869	137.35049	21.02749	-140.86026	-249.21368	-0.45265	478.33646	117.40960	105.20251	482.97995	-35.94841	1182.31177	-187.92676	-134.69203	542.09912	-314.02353	23.52326	542.56824	-313.08130	-133.32799	526.99792	630.47699	20.34496	517.24225	630.42603	
6163	61.620	-242.37793	138.39238	-146.28842	137.36140	20.99680	-140.86026	-248.82137	-0.75486	478.21805	116.68124	115.49239	481.02701	-35.99245	1182.06055	-188.48914	-134.54260	541.78168	-314.65860	23.76483	542.26672	-313.29678	-133.56441	526.86432	629.86182	20.23461	517.15015	629.93066	
